<svg id="Capa_1" enable-background="new 0 0 512 512" height="512" viewBox="0 0 512 512" width="512" xmlns="http://www.w3.org/2000/svg"><g><g><path d="m109.191 211.791c3.308 11.646 8.012 22.886 13.985 33.42-8.759 9.044-8.814 23.607.325 32.683l25.414 25.237c9.027 8.963 23.696 9.05 32.832.244 10.576 5.901 21.85 10.526 33.52 13.752.141 12.636 10.525 22.877 23.312 22.876h.084l35.918-.126c12.681-.044 23.169-10.219 23.235-23.039 11.647-3.308 22.887-8.011 33.421-13.986 9.145 8.816 23.719 8.703 32.721-.364l25.343-25.521c9.062-9.126 8.934-23.702.102-32.688 5.901-10.577 10.525-21.849 13.75-33.518 12.672-.138 22.92-10.576 22.876-23.396l-.125-35.917c-.044-12.816-10.366-23.194-23.04-23.236-3.307-11.647-8.01-22.886-13.985-33.422 8.788-9.158 8.638-23.781-.397-32.753l-25.562-25.383c-9.115-9.053-23.73-8.884-32.616-.028-10.574-5.9-21.846-10.524-33.515-13.75-.135-12.637-10.525-22.876-23.313-22.876-.027 0-.057 0-.084 0l-35.918.125c-12.979.046-23.223 10.57-23.235 23.04-11.646 3.307-22.887 8.011-33.422 13.985-9.158-8.788-23.781-8.637-32.755.398l-25.273 25.452c-8.998 9.06-9.031 23.621-.136 32.722-5.902 10.579-10.526 21.851-13.751 33.518-12.667.133-22.92 10.57-22.876 23.396l.126 35.917c.045 12.826 10.369 23.182 23.039 23.238zm-.02-67.552h.021l.302-.001c6.413-.073 12.071-4.438 13.76-10.615 2.945-10.778 7.216-21.187 12.692-30.938 3.102-5.522 2.212-12.529-2.15-17.027-.09-.093-.181-.186-.272-.277-.017-.017-.033-.033-.05-.05-3.254-3.231-3.272-8.507-.041-11.761l25.272-25.451c3.235-3.256 8.518-3.291 11.811-.063.018.018.035.036.054.054 4.595 4.528 11.791 5.421 17.497 2.174 9.655-5.492 19.971-9.798 30.66-12.799 6.161-1.73 10.484-7.417 10.513-13.862v-.288c-.044-4.533 3.737-8.194 8.287-8.209l35.918-.126h.03c4.549 0 8.327 3.629 8.314 8.167 0 7.234 4.646 12.43 10.602 14.056 10.787 2.947 21.201 7.218 30.955 12.698 5.519 3.098 12.521 2.211 17.043-2.168.1-.044 6.098-6.273 11.961-.456l25.562 25.383c3.263 3.241 3.29 8.539.07 11.8-4.85 4.913-5.398 12.022-2.346 17.367 5.546 9.713 9.89 20.097 12.911 30.861 1.688 6.015 6.996 10.609 14.229 10.503 4.455 0 8.112 3.722 8.128 8.289l.125 35.917c.028 8.2-8.375 8.303-8.475 8.347-6.41.075-12.064 4.438-13.752 10.609-2.945 10.784-7.217 21.197-12.694 30.947-3.1 5.516-2.213 12.518 2.131 17.002 3.994 4.151 3.383 9.089.42 12.075l-25.345 25.521c-3.234 3.259-8.5 3.279-11.761.041-4.584-4.646-11.78-5.545-17.367-2.354-9.712 5.545-20.094 9.89-30.856 12.912-6.162 1.729-10.485 7.416-10.514 13.861l.001.287c.043 4.517-3.719 8.194-8.288 8.21l-35.918.126c-.01 0-.02 0-.029 0-4.377 0-8.103-2.918-8.333-9.098-.238-6.187-4.495-11.462-10.592-13.128-10.781-2.946-21.19-7.216-30.939-12.691-2.2-1.236-4.636-1.838-7.057-1.838-3.666 0-7.197 1.297-10.251 4.255-3.293 3.251-8.643 3.241-11.926-.017l-25.413-25.236c-3.186-3.165-3.325-8.399.002-11.727l.31-.317c4.339-4.541 5.178-11.55 2.039-17.048-5.547-9.714-9.892-20.099-12.913-30.865-1.705-6.075-7.003-10.292-13.189-10.492-.322-.01-.648-.014-.958-.011-4.57.025-8.192-3.754-8.208-8.289l-.126-35.917c-.017-4.517 3.57-8.343 8.143-8.343z"/><path d="m256.022 275.22h.374c52.054-.182 95.448-38.261 103.511-88.384.658-4.089-2.123-7.938-6.213-8.596-4.095-.662-7.938 2.124-8.596 6.213-6.907 42.916-44.084 75.611-88.755 75.767-.109 0-.211 0-.32 0-12.966 0-25.304-2.757-36.463-7.708l2.469-2.469c10.281-10.282 24.027-16.369 38.698-17.14.288-.07 23.732-.178 42.353-18.797 16.364-16.365 22.709-40.406 16.56-62.743-2.525-9.168-13.988-12.227-20.717-5.497l-29.962 29.962c-2.094 2.095-5.486 2.095-7.58 0l-11.179-11.179c-2.095-2.095-2.096-5.485 0-7.581l29.962-29.962c6.723-6.723 3.679-18.188-5.498-20.716-22.335-6.148-46.377.196-62.743 16.561-11.221 11.222-17.889 26.12-18.774 41.956-.064.267-.202 22.134-17.162 39.095l-2.468 2.468c-4.91-11.065-7.664-23.293-7.709-36.153-.174-49.747 40.156-90.36 89.903-90.534h.318c42.939 0 80.126 30.458 88.483 72.531.807 4.062 4.756 6.7 8.817 5.895 4.063-.807 6.702-4.755 5.896-8.818-9.75-49.081-53.115-84.608-103.196-84.608-.123 0-.248 0-.371 0-58.018.203-105.053 47.569-104.851 105.587.203 57.753 47.223 104.85 105.213 104.85zm-69.429-60.612c21.214-21.216 21.461-48.577 21.531-48.87.68-12.142 5.795-23.571 14.405-32.181 11.474-11.473 27.863-16.527 43.685-13.716l-26.62 26.62c-7.938 7.938-7.938 20.855 0 28.794l11.179 11.179c7.939 7.938 20.855 7.938 28.795 0l26.62-26.62c2.812 15.821-2.243 32.212-13.715 43.686-14.365 14.363-32.213 14.348-32.526 14.424-18.385.966-35.618 8.606-48.525 21.513l-5.531 5.531c-9.802-6.577-18.248-15.025-24.827-24.829z"/><path d="m488.095 381.55c-9.223-13.556-24.853-16.874-41.829-8.888l-119.592 52.657c.059-10.063.104-9.632.033-10.346-2.073-20.852-18.013-37.465-38.76-40.401-.064-.009-.129-.018-.193-.025l-79.24-9.124c-16.77-2.389-24.964-7.961-40.573-17.09-22.516-13.171-48.151-20.223-74.221-20.463v-3.999c0-11.648-9.477-21.124-21.124-21.124h-32.882c-11.647 0-21.124 9.476-21.124 21.124v157.727c0 11.648 9.477 21.124 21.124 21.124h32.882c11.647 0 21.124-9.476 21.124-21.124v-1.556l71.274 26.53c9.677 3.602 19.818 5.428 30.144 5.428h106.876c36.484 0 44.397-15.269 179.75-88.927 9.3-5.251 17.322-25.37 6.331-41.523zm-14.475 28.896c-136.086 74.525-141.633 86.554-171.606 86.554h-106.876c-8.532 0-16.914-1.509-24.911-4.486l-76.507-28.477v-62.167c0-4.142-3.357-7.5-7.5-7.5s-7.5 3.358-7.5 7.5v79.729c0 3.377-2.747 6.124-6.124 6.124h-32.882c-3.377 0-6.124-2.747-6.124-6.124v-157.727c0-3.377 2.747-6.124 6.124-6.124h32.882c3.377 0 6.124 2.747 6.124 6.124v43.228c0 4.142 3.357 7.5 7.5 7.5s7.5-3.358 7.5-7.5v-24.228c23.411.239 46.426 6.582 66.646 18.41 16.412 9.601 26.416 16.218 46.14 19.008.064.009.129.018.193.025l79.236 9.123c13.715 1.981 24.27 12.898 25.806 26.645l-.097 13.271h-88.845c-4.143 0-7.5 3.358-7.5 7.5s3.357 7.5 7.5 7.5h96.291c3.368 0-3.388 1.908 133.309-58.001.062-.027.123-.055.184-.084 7.103-3.359 16.878-5.441 23.111 3.721 4.371 6.423 3.451 15.088-2.074 20.456z"/></g></g></svg>